<svg width="64" height="64" viewBox="0 0 64 64" fill="none" xmlns="http://www.w3.org/2000/svg">
<path d="M42.6654 53.3333V10.6666C42.6654 9.2521 42.1035 7.89554 41.1033 6.89535C40.1031 5.89515 38.7465 5.33325 37.332 5.33325H26.6654C25.2509 5.33325 23.8943 5.89515 22.8941 6.89535C21.8939 7.89554 21.332 9.2521 21.332 10.6666V53.3333" stroke="#586279" stroke-width="4" stroke-linecap="round" stroke-linejoin="round"/>
<path d="M53.332 16H10.6654C7.71985 16 5.33203 18.3878 5.33203 21.3333V48C5.33203 50.9455 7.71985 53.3333 10.6654 53.3333H53.332C56.2775 53.3333 58.6654 50.9455 58.6654 48V21.3333C58.6654 18.3878 56.2775 16 53.332 16Z" stroke="#586279" stroke-width="4" stroke-linecap="round" stroke-linejoin="round"/>
</svg>
