<svg width="64" height="64" viewBox="0 0 64 64" fill="none" xmlns="http://www.w3.org/2000/svg">
<path d="M36.7888 55.4773C36.9595 55.5449 37.1133 55.5787 37.2502 55.5787C37.387 55.5787 37.5408 55.5449 37.7115 55.4773L53.2208 50.6987C53.1675 49.888 52.9257 49.304 52.4955 48.9467C52.0617 48.5893 51.5719 48.4107 51.0262 48.4107H38.3728C37.2457 48.4107 36.2235 48.3662 35.3062 48.2773C34.3888 48.1884 33.451 47.9769 32.4928 47.6427L27.9222 46.1707C27.5577 46.0498 27.2955 45.8098 27.1355 45.4507C26.9755 45.0916 26.9559 44.736 27.0768 44.384C27.1977 44.032 27.4253 43.7742 27.7595 43.6107C28.0937 43.4471 28.4475 43.4267 28.8208 43.5493L32.9542 45.0453C33.811 45.3369 34.7604 45.5236 35.8022 45.6053C36.8422 45.6871 38.1302 45.7333 39.6662 45.744H40.3595C40.3595 44.912 40.2057 44.24 39.8982 43.728C39.5906 43.216 39.1524 42.8587 38.5835 42.656L23.2395 37.024C23.1382 36.9902 23.0439 36.9653 22.9568 36.9493C22.8697 36.9333 22.7764 36.9244 22.6768 36.9227H17.0768V49.744L36.7888 55.4773ZM36.1088 58.112L17.0768 52.544C16.8226 53.5964 16.2848 54.4356 15.4635 55.0613C14.6422 55.6871 13.7444 56 12.7702 56H10.7168C9.53282 56 8.51949 55.5778 7.67682 54.7333C6.83238 53.8907 6.41016 52.8773 6.41016 51.6933V38.56C6.41016 37.376 6.83149 36.3627 7.67416 35.52C8.5186 34.6756 9.53282 34.2533 10.7168 34.2533H22.6182C22.867 34.2533 23.1222 34.2818 23.3835 34.3387C23.6466 34.3938 23.891 34.4596 24.1168 34.536L39.5275 40.1813C40.4822 40.544 41.3035 41.1956 41.9915 42.136C42.6813 43.0764 43.0262 44.2782 43.0262 45.7413H51.0262C52.6315 45.7413 53.8617 46.2436 54.7168 47.248C55.5719 48.2542 55.9995 49.5298 55.9995 51.0747C55.9995 51.608 55.8555 52.0578 55.5675 52.424C55.2795 52.7902 54.8573 53.0667 54.3008 53.2533L38.6102 58.0933C38.2226 58.2036 37.8137 58.2676 37.3835 58.2853C36.9533 58.3031 36.5275 58.2444 36.1062 58.1093M9.07682 51.6907C9.07682 52.1707 9.2306 52.5644 9.53816 52.872C9.84571 53.1796 10.2386 53.3333 10.7168 53.3333H12.7702C13.2484 53.3333 13.6413 53.2053 13.9488 52.9493C14.2564 52.6933 14.4102 52.2738 14.4102 51.6907V36.9227H10.7168C10.2386 36.9227 9.84571 37.0764 9.53816 37.384C9.2306 37.6916 9.07682 38.0853 9.07682 38.5653V51.6907ZM40.2822 31.064C39.7719 30.8702 39.3053 30.5804 38.8822 30.1947L31.8048 23.4053C30.6315 22.2764 29.6528 21.0142 28.8688 19.6187C28.0848 18.2213 27.6928 16.7013 27.6928 15.0587C27.6928 13.096 28.379 11.4293 29.7515 10.0587C31.1222 8.68622 32.787 8 34.7462 8C36.2022 8 37.5266 8.39378 38.7195 9.18133C39.9124 9.96889 40.9533 10.9253 41.8422 12.0507C42.731 10.9253 43.7728 9.96889 44.9675 9.18133C46.1586 8.39378 47.483 8 48.9408 8C50.9017 8 52.5675 8.68622 53.9382 10.0587C55.3088 11.4311 55.9959 13.0969 55.9995 15.056C55.9995 16.7022 55.6102 18.2231 54.8315 19.6187C54.051 21.0142 53.0742 22.2764 51.9008 23.4053L44.8075 30.1947C44.3862 30.5822 43.9195 30.872 43.4075 31.064C42.8955 31.256 42.3746 31.3529 41.8448 31.3547C41.315 31.3564 40.795 31.2596 40.2848 31.064M42.9755 28.2773L49.8288 21.7093C50.7764 20.7956 51.5977 19.784 52.2928 18.6747C52.9862 17.5653 53.3328 16.3591 53.3328 15.056C53.3328 13.84 52.9062 12.8044 52.0528 11.9493C51.1995 11.0942 50.1622 10.6667 48.9408 10.6667C47.8742 10.6667 46.9177 10.9858 46.0715 11.624C45.2253 12.2604 44.4653 13.0116 43.7915 13.8773L43.3462 14.416C42.9604 14.9013 42.4626 15.144 41.8528 15.144C41.243 15.144 40.739 14.9013 40.3408 14.416L39.8955 13.8773C39.2199 13.0116 38.4599 12.2604 37.6155 11.624C36.7693 10.9858 35.8128 10.6667 34.7462 10.6667C33.5284 10.6667 32.4928 11.0933 31.6395 11.9467C30.7844 12.8036 30.3568 13.84 30.3568 15.056C30.3568 16.3591 30.7035 17.5653 31.3968 18.6747C32.0902 19.784 32.9106 20.7956 33.8582 21.7093L40.7142 28.2773C41.0217 28.5849 41.3977 28.7387 41.8422 28.7387C42.2866 28.7387 42.6626 28.5849 42.9702 28.2773" fill="#586279"/>
</svg>
