<svg width="64" height="64" viewBox="0 0 64 64" fill="none" xmlns="http://www.w3.org/2000/svg">
<path d="M42.6654 56V50.6667C42.6654 47.8377 41.5416 45.1246 39.5412 43.1242C37.5408 41.1238 34.8277 40 31.9987 40H15.9987C13.1697 40 10.4566 41.1238 8.45623 43.1242C6.45584 45.1246 5.33203 47.8377 5.33203 50.6667V56" stroke="#586279" stroke-width="4" stroke-linecap="round" stroke-linejoin="round"/>
<path d="M23.9987 29.3333C29.8897 29.3333 34.6654 24.5577 34.6654 18.6667C34.6654 12.7756 29.8897 8 23.9987 8C18.1077 8 13.332 12.7756 13.332 18.6667C13.332 24.5577 18.1077 29.3333 23.9987 29.3333Z" stroke="#586279" stroke-width="4" stroke-linecap="round" stroke-linejoin="round"/>
<path d="M58.668 56V50.6667C58.6662 48.3033 57.8796 46.0074 56.4316 44.1395C54.9836 42.2716 52.9563 40.9375 50.668 40.3467" stroke="#586279" stroke-width="4" stroke-linecap="round" stroke-linejoin="round"/>
<path d="M42.668 8.34668C44.9624 8.93415 46.9961 10.2685 48.4483 12.1395C49.9006 14.0105 50.6889 16.3116 50.6889 18.68C50.6889 21.0485 49.9006 23.3496 48.4483 25.2205C46.9961 27.0915 44.9624 28.4259 42.668 29.0133" stroke="#586279" stroke-width="4" stroke-linecap="round" stroke-linejoin="round"/>
</svg>
