<svg width="64" height="64" viewBox="0 0 64 64" fill="none" xmlns="http://www.w3.org/2000/svg">
<path d="M26.666 20.6664C26.6667 20.3112 26.7619 19.9626 26.942 19.6563C27.1221 19.3501 27.3805 19.0974 27.6906 18.9242C28.0007 18.7509 28.3514 18.6634 28.7065 18.6706C29.0617 18.6778 29.4085 18.7794 29.7114 18.9651L39.482 24.9624C39.7732 25.1414 40.0137 25.3919 40.1805 25.6903C40.3473 25.9886 40.4349 26.3246 40.4349 26.6664C40.4349 27.0082 40.3473 27.3443 40.1805 27.6426C40.0137 27.9409 39.7732 28.1915 39.482 28.3704L29.7114 34.3704C29.4081 34.5563 29.0608 34.658 28.7052 34.665C28.3496 34.6719 27.9985 34.5839 27.6883 34.4101C27.378 34.2362 27.1197 33.9827 26.94 33.6757C26.7603 33.3688 26.6657 33.0194 26.666 32.6638V20.6664Z" stroke="#586279" stroke-width="4" stroke-linecap="round" stroke-linejoin="round"/>
<path d="M32 45.3333V55.9999" stroke="#586279" stroke-width="4" stroke-linecap="round" stroke-linejoin="round"/>
<path d="M21.334 56H42.6673" stroke="#586279" stroke-width="4" stroke-linecap="round" stroke-linejoin="round"/>
<path d="M53.334 8H10.6673C7.7218 8 5.33398 10.3878 5.33398 13.3333V40C5.33398 42.9455 7.7218 45.3333 10.6673 45.3333H53.334C56.2795 45.3333 58.6673 42.9455 58.6673 40V13.3333C58.6673 10.3878 56.2795 8 53.334 8Z" stroke="#586279" stroke-width="4" stroke-linecap="round" stroke-linejoin="round"/>
</svg>
